<?xml version="1.0" encoding="UTF-8" standalone="no"?>
<!-- Created with Inkscape (http://www.inkscape.org/) -->

<svg
   xmlns:dc="http://purl.org/dc/elements/1.1/"
   xmlns:cc="http://creativecommons.org/ns#"
   xmlns:rdf="http://www.w3.org/1999/02/22-rdf-syntax-ns#"
   xmlns:svg="http://www.w3.org/2000/svg"
   xmlns="http://www.w3.org/2000/svg"
   xmlns:sodipodi="http://sodipodi.sourceforge.net/DTD/sodipodi-0.dtd"
   xmlns:inkscape="http://www.inkscape.org/namespaces/inkscape"
   width="39.511059mm"
   height="39.511059mm"
   viewBox="0 0 139.99981 139.99981"
   id="svg2"
   version="1.1"
   inkscape:version="0.91 r13725"
   sodipodi:docname="blackandwhitelogo.svg"
   inkscape:export-filename="C:\nodeprojects\meteor\wersety\public\icon.png"
   inkscape:export-xdpi="90"
   inkscape:export-ydpi="90">
  <defs
     id="defs4" />
  <sodipodi:namedview
     id="base"
     pagecolor="#ffffff"
     bordercolor="#666666"
     borderopacity="1.0"
     inkscape:pageopacity="0.0"
     inkscape:pageshadow="2"
     inkscape:zoom="2"
     inkscape:cx="70.910436"
     inkscape:cy="103.95937"
     inkscape:document-units="px"
     inkscape:current-layer="layer1"
     showgrid="false"
     inkscape:snap-bbox="true"
     inkscape:bbox-paths="true"
     inkscape:bbox-nodes="true"
     inkscape:snap-bbox-edge-midpoints="true"
     inkscape:snap-bbox-midpoints="true"
     inkscape:object-paths="true"
     inkscape:snap-intersection-paths="true"
     inkscape:object-nodes="true"
     inkscape:snap-smooth-nodes="true"
     inkscape:snap-midpoints="true"
     inkscape:snap-object-midpoints="true"
     inkscape:snap-center="true"
     inkscape:snap-page="true"
     inkscape:snap-text-baseline="true"
     inkscape:snap-global="true"
     showguides="false"
     inkscape:window-width="1302"
     inkscape:window-height="745"
     inkscape:window-x="56"
     inkscape:window-y="-8"
     inkscape:window-maximized="1"
     fit-margin-top="0"
     fit-margin-left="0"
     fit-margin-right="0"
     fit-margin-bottom="0">
    <inkscape:grid
       type="xygrid"
       id="grid4136"
       originx="-190.00009"
       originy="-840.00014" />
  </sodipodi:namedview>
  <metadata
     id="metadata7">
    <rdf:RDF>
      <cc:Work
         rdf:about="">
        <dc:format>image/svg+xml</dc:format>
        <dc:type
           rdf:resource="http://purl.org/dc/dcmitype/StillImage" />
        <dc:title></dc:title>
      </cc:Work>
    </rdf:RDF>
  </metadata>
  <g
     inkscape:label="Layer 1"
     inkscape:groupmode="layer"
     id="layer1"
     transform="translate(-190.0001,-72.362198)">
    <text
       xml:space="preserve"
       style="font-style:normal;font-weight:normal;font-size:40px;line-height:125%;font-family:sans-serif;letter-spacing:0px;word-spacing:0px;fill:#000000;fill-opacity:1;stroke:none;stroke-width:1px;stroke-linecap:butt;stroke-linejoin:miter;stroke-opacity:1"
       x="429.80283"
       y="406.51352"
       id="text4960"
       sodipodi:linespacing="125%"><tspan
         sodipodi:role="line"
         id="tspan4962"
         x="429.80283"
         y="406.51352" /></text>
    <rect
       style="fill:#000000;fill-opacity:1;fill-rule:nonzero;stroke:none;stroke-width:2;stroke-linecap:round;stroke-linejoin:round;stroke-miterlimit:4;stroke-dasharray:none;stroke-opacity:1;opacity:0"
       id="rect5090"
       width="139.99982"
       height="139.99982"
       x="190.00009"
       y="72.362198" />
    <g
       id="g4139"
       transform="matrix(1.1111119,0,0,1.1111119,-28.889066,-15.818871)">
      <path
         inkscape:connector-curvature="0"
         id="path4432-6-8-8-2-7-9"
         d="m 304.99993,88.365611 -36,71.996499 -54,0 a 18,18 0 0 0 -15.58829,9 18,18 0 0 0 0,18 18,18 0 0 0 15.58829,9 l 54,0 36,-71.99649 0,-36.000009 z"
         style="fill:#b3b3b3;fill-opacity:1;fill-rule:evenodd;stroke:none;stroke-width:2;stroke-linecap:butt;stroke-linejoin:miter;stroke-miterlimit:4;stroke-dasharray:none;stroke-opacity:1" />
      <path
         inkscape:connector-curvature="0"
         id="path4190-8-7-0-1-2-4-5-1"
         d="m 250.99984,88.363441 a 18,18 0 0 0 -15.58829,9 18,18 0 0 0 -0.8121,1.585548 18,18 0 0 0 -0.0108,0.018 l -35.36365,70.730861 0.0144,0 a 18,18 0 0 1 0.17226,-0.33399 18,18 0 0 1 15.58829,-9 l 53.99998,0 11.03204,-22.06054 6.96796,-13.93946 18,-35.996495 0,-0.0036 -54,0 z m 45,36.003519 -18,36 18,0 27,-18 -9,-18 -18,0 z"
         style="fill:#ffffff;fill-rule:evenodd;stroke:none;stroke-width:2;stroke-linecap:round;stroke-linejoin:round;stroke-miterlimit:4;stroke-dasharray:none;stroke-opacity:1" />
    </g>
  </g>
</svg>
