<?xml version="1.0" encoding="UTF-8" standalone="no"?>
<!-- Created with Inkscape (http://www.inkscape.org/) -->

<svg
   xmlns:dc="http://purl.org/dc/elements/1.1/"
   xmlns:cc="http://creativecommons.org/ns#"
   xmlns:rdf="http://www.w3.org/1999/02/22-rdf-syntax-ns#"
   xmlns:svg="http://www.w3.org/2000/svg"
   xmlns="http://www.w3.org/2000/svg"
   xmlns:sodipodi="http://sodipodi.sourceforge.net/DTD/sodipodi-0.dtd"
   xmlns:inkscape="http://www.inkscape.org/namespaces/inkscape"
   width="39.511059mm"
   height="33.866665mm"
   viewBox="0 0 139.99981 119.99999"
   id="svg2"
   version="1.1"
   inkscape:version="0.91 r13725"
   sodipodi:docname="wersetylogo.svg">
  <defs
     id="defs4" />
  <sodipodi:namedview
     id="base"
     pagecolor="#ffffff"
     bordercolor="#666666"
     borderopacity="1.0"
     inkscape:pageopacity="0.0"
     inkscape:pageshadow="2"
     inkscape:zoom="1.4142136"
     inkscape:cx="77.692925"
     inkscape:cy="66.624379"
     inkscape:document-units="px"
     inkscape:current-layer="layer1"
     showgrid="false"
     inkscape:snap-bbox="true"
     inkscape:bbox-paths="true"
     inkscape:bbox-nodes="true"
     inkscape:snap-bbox-edge-midpoints="true"
     inkscape:snap-bbox-midpoints="true"
     inkscape:object-paths="true"
     inkscape:snap-intersection-paths="true"
     inkscape:object-nodes="true"
     inkscape:snap-smooth-nodes="true"
     inkscape:snap-midpoints="true"
     inkscape:snap-object-midpoints="true"
     inkscape:snap-center="true"
     inkscape:snap-page="true"
     inkscape:snap-text-baseline="true"
     inkscape:snap-global="true"
     showguides="false"
     inkscape:window-width="1302"
     inkscape:window-height="745"
     inkscape:window-x="56"
     inkscape:window-y="-8"
     inkscape:window-maximized="1"
     fit-margin-top="0"
     fit-margin-left="0"
     fit-margin-right="0"
     fit-margin-bottom="0">
    <inkscape:grid
       type="xygrid"
       id="grid4136"
       originx="-190.00009"
       originy="-859.99999" />
  </sodipodi:namedview>
  <metadata
     id="metadata7">
    <rdf:RDF>
      <cc:Work
         rdf:about="">
        <dc:format>image/svg+xml</dc:format>
        <dc:type
           rdf:resource="http://purl.org/dc/dcmitype/StillImage" />
        <dc:title></dc:title>
      </cc:Work>
    </rdf:RDF>
  </metadata>
  <g
     inkscape:label="Layer 1"
     inkscape:groupmode="layer"
     id="layer1"
     transform="translate(-190.0001,-72.3622)">
    <text
       xml:space="preserve"
       style="font-style:normal;font-weight:normal;font-size:40px;line-height:125%;font-family:sans-serif;letter-spacing:0px;word-spacing:0px;fill:#000000;fill-opacity:1;stroke:none;stroke-width:1px;stroke-linecap:butt;stroke-linejoin:miter;stroke-opacity:1"
       x="429.80283"
       y="406.51352"
       id="text4960"
       sodipodi:linespacing="125%"><tspan
         sodipodi:role="line"
         id="tspan4962"
         x="429.80283"
         y="406.51352" /></text>
    <g
       id="g5072"
       transform="matrix(2,0,0,2,-277.74217,-136.87346)">
      <path
         inkscape:connector-curvature="0"
         id="path4432-6-8-8-2-7-9"
         d="m 293.87104,104.61978 -20,39.99805 -30,0 a 10,10 0 0 0 -8.66016,5 10,10 0 0 0 0,10 10,10 0 0 0 8.66016,5 l 30,0 20,-39.99805 0,-20 z"
         style="fill:#00aad4;fill-opacity:1;fill-rule:evenodd;stroke:none;stroke-width:2;stroke-linecap:butt;stroke-linejoin:miter;stroke-miterlimit:4;stroke-dasharray:none;stroke-opacity:1" />
      <path
         inkscape:connector-curvature="0"
         id="path4190-8-7-0-1-2-4-5-1"
         d="m 263.87104,104.61783 a 10,10 0 0 0 -8.66016,5 10,10 0 0 0 -0.45117,0.88086 10,10 0 0 0 -0.006,0.01 l -19.64647,39.29492 0.008,0 a 10,10 0 0 1 0.0957,-0.18555 10,10 0 0 1 8.66016,-5 l 29.99999,0 L 280,132.3622 l 3.87109,-7.74414 10,-19.99805 0,-0.002 -30,0 z m 25,20.00195 -10,20 10,0 15,-10 -5,-10 -10,0 z"
         style="fill:#0044aa;fill-rule:evenodd;stroke:none;stroke-width:2;stroke-linecap:round;stroke-linejoin:round;stroke-miterlimit:4;stroke-dasharray:none;stroke-opacity:1" />
    </g>
  </g>
</svg>
